<mxfile host="app.diagrams.net" modified="2024-03-03T23:09:26.807Z" agent="Mozilla/5.0 (Windows NT 10.0; Win64; x64) AppleWebKit/537.36 (KHTML, like Gecko) Chrome/121.0.0.0 Safari/537.36" etag="ZwxDZvHFBsCjWjo0eKse" version="23.1.5" type="github">
  <diagram name="Page-1" id="TkaRWehsHQmAeEIkWK3g">
    <mxGraphModel dx="2390" dy="1307" grid="1" gridSize="10" guides="1" tooltips="1" connect="1" arrows="1" fold="1" page="1" pageScale="1" pageWidth="1169" pageHeight="827" math="0" shadow="0">
      <root>
        <mxCell id="0" />
        <mxCell id="1" parent="0" />
        <mxCell id="gUa_1OAK8cR2R-v4tpQf-41" value="" style="rounded=0;whiteSpace=wrap;html=1;gradientColor=none;fillColor=#1fa9ff;fillStyle=auto;" vertex="1" parent="1">
          <mxGeometry x="40" y="40" width="1920" height="1080" as="geometry" />
        </mxCell>
        <mxCell id="gUa_1OAK8cR2R-v4tpQf-43" value="" style="shape=table;startSize=0;container=1;collapsible=0;childLayout=tableLayout;fontSize=16;fillColor=#b1ddf0;strokeColor=#10739e;" vertex="1" parent="1">
          <mxGeometry x="379" y="260" width="1561" height="50" as="geometry" />
        </mxCell>
        <mxCell id="gUa_1OAK8cR2R-v4tpQf-44" value="" style="shape=tableRow;horizontal=0;startSize=0;swimlaneHead=0;swimlaneBody=0;strokeColor=inherit;top=0;left=0;bottom=0;right=0;collapsible=0;dropTarget=0;fillColor=none;points=[[0,0.5],[1,0.5]];portConstraint=eastwest;fontSize=16;" vertex="1" parent="gUa_1OAK8cR2R-v4tpQf-43">
          <mxGeometry width="1561" height="50" as="geometry" />
        </mxCell>
        <mxCell id="gUa_1OAK8cR2R-v4tpQf-45" value="Ninjas" style="shape=partialRectangle;html=1;whiteSpace=wrap;connectable=0;strokeColor=inherit;overflow=hidden;fillColor=none;top=0;left=0;bottom=0;right=0;pointerEvents=1;fontSize=16;" vertex="1" parent="gUa_1OAK8cR2R-v4tpQf-44">
          <mxGeometry width="120" height="50" as="geometry">
            <mxRectangle width="120" height="50" as="alternateBounds" />
          </mxGeometry>
        </mxCell>
        <mxCell id="gUa_1OAK8cR2R-v4tpQf-46" value="Session Length" style="shape=partialRectangle;html=1;whiteSpace=wrap;connectable=0;strokeColor=inherit;overflow=hidden;fillColor=none;top=0;left=0;bottom=0;right=0;pointerEvents=1;fontSize=16;" vertex="1" parent="gUa_1OAK8cR2R-v4tpQf-44">
          <mxGeometry x="120" width="120" height="50" as="geometry">
            <mxRectangle width="120" height="50" as="alternateBounds" />
          </mxGeometry>
        </mxCell>
        <mxCell id="gUa_1OAK8cR2R-v4tpQf-47" value="Started on" style="shape=partialRectangle;html=1;whiteSpace=wrap;connectable=0;strokeColor=inherit;overflow=hidden;fillColor=none;top=0;left=0;bottom=0;right=0;pointerEvents=1;fontSize=16;" vertex="1" parent="gUa_1OAK8cR2R-v4tpQf-44">
          <mxGeometry x="240" width="120" height="50" as="geometry">
            <mxRectangle width="120" height="50" as="alternateBounds" />
          </mxGeometry>
        </mxCell>
        <mxCell id="gUa_1OAK8cR2R-v4tpQf-56" value="1" style="shape=partialRectangle;html=1;whiteSpace=wrap;connectable=0;strokeColor=#23445d;overflow=hidden;fillColor=#bac8d3;top=0;left=0;bottom=0;right=0;pointerEvents=1;fontSize=16;" vertex="1" parent="gUa_1OAK8cR2R-v4tpQf-44">
          <mxGeometry x="360" width="119" height="50" as="geometry">
            <mxRectangle width="119" height="50" as="alternateBounds" />
          </mxGeometry>
        </mxCell>
        <mxCell id="gUa_1OAK8cR2R-v4tpQf-59" value="2" style="shape=partialRectangle;html=1;whiteSpace=wrap;connectable=0;strokeColor=#23445d;overflow=hidden;fillColor=#bac8d3;top=0;left=0;bottom=0;right=0;pointerEvents=1;fontSize=16;" vertex="1" parent="gUa_1OAK8cR2R-v4tpQf-44">
          <mxGeometry x="479" width="121" height="50" as="geometry">
            <mxRectangle width="121" height="50" as="alternateBounds" />
          </mxGeometry>
        </mxCell>
        <mxCell id="gUa_1OAK8cR2R-v4tpQf-62" value="3" style="shape=partialRectangle;html=1;whiteSpace=wrap;connectable=0;strokeColor=#23445d;overflow=hidden;fillColor=#bac8d3;top=0;left=0;bottom=0;right=0;pointerEvents=1;fontSize=16;" vertex="1" parent="gUa_1OAK8cR2R-v4tpQf-44">
          <mxGeometry x="600" width="121" height="50" as="geometry">
            <mxRectangle width="121" height="50" as="alternateBounds" />
          </mxGeometry>
        </mxCell>
        <mxCell id="gUa_1OAK8cR2R-v4tpQf-65" value="4" style="shape=partialRectangle;html=1;whiteSpace=wrap;connectable=0;strokeColor=#23445d;overflow=hidden;fillColor=#bac8d3;top=0;left=0;bottom=0;right=0;pointerEvents=1;fontSize=16;" vertex="1" parent="gUa_1OAK8cR2R-v4tpQf-44">
          <mxGeometry x="721" width="119" height="50" as="geometry">
            <mxRectangle width="119" height="50" as="alternateBounds" />
          </mxGeometry>
        </mxCell>
        <mxCell id="gUa_1OAK8cR2R-v4tpQf-68" value="5" style="shape=partialRectangle;html=1;whiteSpace=wrap;connectable=0;strokeColor=#23445d;overflow=hidden;fillColor=#bac8d3;top=0;left=0;bottom=0;right=0;pointerEvents=1;fontSize=16;" vertex="1" parent="gUa_1OAK8cR2R-v4tpQf-44">
          <mxGeometry x="840" width="120" height="50" as="geometry">
            <mxRectangle width="120" height="50" as="alternateBounds" />
          </mxGeometry>
        </mxCell>
        <mxCell id="gUa_1OAK8cR2R-v4tpQf-71" value="6" style="shape=partialRectangle;html=1;whiteSpace=wrap;connectable=0;strokeColor=#23445d;overflow=hidden;fillColor=#bac8d3;top=0;left=0;bottom=0;right=0;pointerEvents=1;fontSize=16;" vertex="1" parent="gUa_1OAK8cR2R-v4tpQf-44">
          <mxGeometry x="960" width="120" height="50" as="geometry">
            <mxRectangle width="120" height="50" as="alternateBounds" />
          </mxGeometry>
        </mxCell>
        <mxCell id="gUa_1OAK8cR2R-v4tpQf-74" value="7" style="shape=partialRectangle;html=1;whiteSpace=wrap;connectable=0;strokeColor=#23445d;overflow=hidden;fillColor=#bac8d3;top=0;left=0;bottom=0;right=0;pointerEvents=1;fontSize=16;" vertex="1" parent="gUa_1OAK8cR2R-v4tpQf-44">
          <mxGeometry x="1080" width="120" height="50" as="geometry">
            <mxRectangle width="120" height="50" as="alternateBounds" />
          </mxGeometry>
        </mxCell>
        <mxCell id="gUa_1OAK8cR2R-v4tpQf-77" value="8" style="shape=partialRectangle;html=1;whiteSpace=wrap;connectable=0;strokeColor=#23445d;overflow=hidden;fillColor=#bac8d3;top=0;left=0;bottom=0;right=0;pointerEvents=1;fontSize=16;" vertex="1" parent="gUa_1OAK8cR2R-v4tpQf-44">
          <mxGeometry x="1200" width="119" height="50" as="geometry">
            <mxRectangle width="119" height="50" as="alternateBounds" />
          </mxGeometry>
        </mxCell>
        <mxCell id="gUa_1OAK8cR2R-v4tpQf-145" value="9" style="shape=partialRectangle;html=1;whiteSpace=wrap;connectable=0;strokeColor=#23445d;overflow=hidden;fillColor=#bac8d3;top=0;left=0;bottom=0;right=0;pointerEvents=1;fontSize=16;" vertex="1" parent="gUa_1OAK8cR2R-v4tpQf-44">
          <mxGeometry x="1319" width="121" height="50" as="geometry">
            <mxRectangle width="121" height="50" as="alternateBounds" />
          </mxGeometry>
        </mxCell>
        <mxCell id="gUa_1OAK8cR2R-v4tpQf-220" value="Report" style="shape=partialRectangle;html=1;whiteSpace=wrap;connectable=0;strokeColor=inherit;overflow=hidden;fillColor=none;top=0;left=0;bottom=0;right=0;pointerEvents=1;fontSize=16;" vertex="1" parent="gUa_1OAK8cR2R-v4tpQf-44">
          <mxGeometry x="1440" width="121" height="50" as="geometry">
            <mxRectangle width="121" height="50" as="alternateBounds" />
          </mxGeometry>
        </mxCell>
        <mxCell id="gUa_1OAK8cR2R-v4tpQf-140" value="&lt;font style=&quot;font-size: 36px;&quot;&gt;Menu bar&lt;/font&gt;" style="rounded=1;whiteSpace=wrap;html=1;" vertex="1" parent="1">
          <mxGeometry x="40" y="40" width="320" height="1070" as="geometry" />
        </mxCell>
        <mxCell id="gUa_1OAK8cR2R-v4tpQf-141" value="&lt;font face=&quot;Times New Roman&quot; style=&quot;font-size: 80px;&quot;&gt;Ninjas in the Dojo&lt;/font&gt;" style="rounded=1;whiteSpace=wrap;html=1;" vertex="1" parent="1">
          <mxGeometry x="370" y="50" width="760" height="110" as="geometry" />
        </mxCell>
        <mxCell id="gUa_1OAK8cR2R-v4tpQf-277" value="" style="rounded=1;whiteSpace=wrap;html=1;arcSize=2;fillColor=#cce5ff;strokeColor=#36393d;" vertex="1" parent="1">
          <mxGeometry x="370" y="320" width="1580" height="790" as="geometry" />
        </mxCell>
        <mxCell id="gUa_1OAK8cR2R-v4tpQf-236" value="" style="shape=table;startSize=0;container=1;collapsible=0;childLayout=tableLayout;fontSize=16;fillColor=#b1ddf0;strokeColor=#10739e;" vertex="1" parent="1">
          <mxGeometry x="379" y="330" width="1561" height="50" as="geometry" />
        </mxCell>
        <mxCell id="gUa_1OAK8cR2R-v4tpQf-237" value="" style="shape=tableRow;horizontal=0;startSize=0;swimlaneHead=0;swimlaneBody=0;strokeColor=inherit;top=0;left=0;bottom=0;right=0;collapsible=0;dropTarget=0;fillColor=none;points=[[0,0.5],[1,0.5]];portConstraint=eastwest;fontSize=16;" vertex="1" parent="gUa_1OAK8cR2R-v4tpQf-236">
          <mxGeometry width="1561" height="50" as="geometry" />
        </mxCell>
        <mxCell id="gUa_1OAK8cR2R-v4tpQf-238" value="name0" style="shape=partialRectangle;html=1;whiteSpace=wrap;connectable=0;strokeColor=inherit;overflow=hidden;fillColor=none;top=0;left=0;bottom=0;right=0;pointerEvents=1;fontSize=16;" vertex="1" parent="gUa_1OAK8cR2R-v4tpQf-237">
          <mxGeometry width="120" height="50" as="geometry">
            <mxRectangle width="120" height="50" as="alternateBounds" />
          </mxGeometry>
        </mxCell>
        <mxCell id="gUa_1OAK8cR2R-v4tpQf-239" value="1" style="shape=partialRectangle;html=1;whiteSpace=wrap;connectable=0;strokeColor=inherit;overflow=hidden;fillColor=none;top=0;left=0;bottom=0;right=0;pointerEvents=1;fontSize=16;" vertex="1" parent="gUa_1OAK8cR2R-v4tpQf-237">
          <mxGeometry x="120" width="120" height="50" as="geometry">
            <mxRectangle width="120" height="50" as="alternateBounds" />
          </mxGeometry>
        </mxCell>
        <mxCell id="gUa_1OAK8cR2R-v4tpQf-240" value="Y1-1" style="shape=partialRectangle;html=1;whiteSpace=wrap;connectable=0;strokeColor=inherit;overflow=hidden;fillColor=none;top=0;left=0;bottom=0;right=0;pointerEvents=1;fontSize=16;" vertex="1" parent="gUa_1OAK8cR2R-v4tpQf-237">
          <mxGeometry x="240" width="120" height="50" as="geometry">
            <mxRectangle width="120" height="50" as="alternateBounds" />
          </mxGeometry>
        </mxCell>
        <mxCell id="gUa_1OAK8cR2R-v4tpQf-241" value="Y1-1" style="shape=partialRectangle;html=1;whiteSpace=wrap;connectable=0;strokeColor=inherit;overflow=hidden;fillColor=none;top=0;left=0;bottom=0;right=0;pointerEvents=1;fontSize=16;" vertex="1" parent="gUa_1OAK8cR2R-v4tpQf-237">
          <mxGeometry x="360" width="119" height="50" as="geometry">
            <mxRectangle width="119" height="50" as="alternateBounds" />
          </mxGeometry>
        </mxCell>
        <mxCell id="gUa_1OAK8cR2R-v4tpQf-242" value="Y1-1" style="shape=partialRectangle;html=1;whiteSpace=wrap;connectable=0;strokeColor=inherit;overflow=hidden;fillColor=none;top=0;left=0;bottom=0;right=0;pointerEvents=1;fontSize=16;" vertex="1" parent="gUa_1OAK8cR2R-v4tpQf-237">
          <mxGeometry x="479" width="121" height="50" as="geometry">
            <mxRectangle width="121" height="50" as="alternateBounds" />
          </mxGeometry>
        </mxCell>
        <mxCell id="gUa_1OAK8cR2R-v4tpQf-243" value="Y1-2" style="shape=partialRectangle;html=1;whiteSpace=wrap;connectable=0;strokeColor=inherit;overflow=hidden;fillColor=none;top=0;left=0;bottom=0;right=0;pointerEvents=1;fontSize=16;" vertex="1" parent="gUa_1OAK8cR2R-v4tpQf-237">
          <mxGeometry x="600" width="121" height="50" as="geometry">
            <mxRectangle width="121" height="50" as="alternateBounds" />
          </mxGeometry>
        </mxCell>
        <mxCell id="gUa_1OAK8cR2R-v4tpQf-244" value="-" style="shape=partialRectangle;html=1;whiteSpace=wrap;connectable=0;strokeColor=#6c8ebf;overflow=hidden;fillColor=#dae8fc;top=0;left=0;bottom=0;right=0;pointerEvents=1;fontSize=16;" vertex="1" parent="gUa_1OAK8cR2R-v4tpQf-237">
          <mxGeometry x="721" width="119" height="50" as="geometry">
            <mxRectangle width="119" height="50" as="alternateBounds" />
          </mxGeometry>
        </mxCell>
        <mxCell id="gUa_1OAK8cR2R-v4tpQf-245" value="-" style="shape=partialRectangle;html=1;whiteSpace=wrap;connectable=0;strokeColor=#6c8ebf;overflow=hidden;fillColor=#dae8fc;top=0;left=0;bottom=0;right=0;pointerEvents=1;fontSize=16;" vertex="1" parent="gUa_1OAK8cR2R-v4tpQf-237">
          <mxGeometry x="840" width="120" height="50" as="geometry">
            <mxRectangle width="120" height="50" as="alternateBounds" />
          </mxGeometry>
        </mxCell>
        <mxCell id="gUa_1OAK8cR2R-v4tpQf-246" value="-" style="shape=partialRectangle;html=1;whiteSpace=wrap;connectable=0;strokeColor=#6c8ebf;overflow=hidden;fillColor=#dae8fc;top=0;left=0;bottom=0;right=0;pointerEvents=1;fontSize=16;" vertex="1" parent="gUa_1OAK8cR2R-v4tpQf-237">
          <mxGeometry x="960" width="120" height="50" as="geometry">
            <mxRectangle width="120" height="50" as="alternateBounds" />
          </mxGeometry>
        </mxCell>
        <mxCell id="gUa_1OAK8cR2R-v4tpQf-247" value="-" style="shape=partialRectangle;html=1;whiteSpace=wrap;connectable=0;strokeColor=#6c8ebf;overflow=hidden;fillColor=#dae8fc;top=0;left=0;bottom=0;right=0;pointerEvents=1;fontSize=16;" vertex="1" parent="gUa_1OAK8cR2R-v4tpQf-237">
          <mxGeometry x="1080" width="120" height="50" as="geometry">
            <mxRectangle width="120" height="50" as="alternateBounds" />
          </mxGeometry>
        </mxCell>
        <mxCell id="gUa_1OAK8cR2R-v4tpQf-248" value="-" style="shape=partialRectangle;html=1;whiteSpace=wrap;connectable=0;strokeColor=#6c8ebf;overflow=hidden;fillColor=#dae8fc;top=0;left=0;bottom=0;right=0;pointerEvents=1;fontSize=16;" vertex="1" parent="gUa_1OAK8cR2R-v4tpQf-237">
          <mxGeometry x="1200" width="119" height="50" as="geometry">
            <mxRectangle width="119" height="50" as="alternateBounds" />
          </mxGeometry>
        </mxCell>
        <mxCell id="gUa_1OAK8cR2R-v4tpQf-249" value="-" style="shape=partialRectangle;html=1;whiteSpace=wrap;connectable=0;strokeColor=#6c8ebf;overflow=hidden;fillColor=#dae8fc;top=0;left=0;bottom=0;right=0;pointerEvents=1;fontSize=16;" vertex="1" parent="gUa_1OAK8cR2R-v4tpQf-237">
          <mxGeometry x="1319" width="121" height="50" as="geometry">
            <mxRectangle width="121" height="50" as="alternateBounds" />
          </mxGeometry>
        </mxCell>
        <mxCell id="gUa_1OAK8cR2R-v4tpQf-250" value="" style="shape=partialRectangle;html=1;whiteSpace=wrap;connectable=0;strokeColor=inherit;overflow=hidden;fillColor=none;top=0;left=0;bottom=0;right=0;pointerEvents=1;fontSize=16;" vertex="1" parent="gUa_1OAK8cR2R-v4tpQf-237">
          <mxGeometry x="1440" width="121" height="50" as="geometry">
            <mxRectangle width="121" height="50" as="alternateBounds" />
          </mxGeometry>
        </mxCell>
        <mxCell id="gUa_1OAK8cR2R-v4tpQf-260" value="&lt;font style=&quot;font-size: 39px;&quot;&gt;Check-in&lt;/font&gt;" style="rounded=1;whiteSpace=wrap;html=1;fillColor=#bac8d3;strokeColor=#23445d;" vertex="1" parent="1">
          <mxGeometry x="739" y="180" width="1080" height="60" as="geometry" />
        </mxCell>
        <mxCell id="gUa_1OAK8cR2R-v4tpQf-262" value="" style="shape=table;startSize=0;container=1;collapsible=0;childLayout=tableLayout;fontSize=16;fillColor=#b1ddf0;strokeColor=#10739e;" vertex="1" parent="1">
          <mxGeometry x="379" y="400" width="1561" height="50" as="geometry" />
        </mxCell>
        <mxCell id="gUa_1OAK8cR2R-v4tpQf-263" value="" style="shape=tableRow;horizontal=0;startSize=0;swimlaneHead=0;swimlaneBody=0;strokeColor=inherit;top=0;left=0;bottom=0;right=0;collapsible=0;dropTarget=0;fillColor=none;points=[[0,0.5],[1,0.5]];portConstraint=eastwest;fontSize=16;" vertex="1" parent="gUa_1OAK8cR2R-v4tpQf-262">
          <mxGeometry width="1561" height="50" as="geometry" />
        </mxCell>
        <mxCell id="gUa_1OAK8cR2R-v4tpQf-264" value="name1" style="shape=partialRectangle;html=1;whiteSpace=wrap;connectable=0;strokeColor=inherit;overflow=hidden;fillColor=none;top=0;left=0;bottom=0;right=0;pointerEvents=1;fontSize=16;" vertex="1" parent="gUa_1OAK8cR2R-v4tpQf-263">
          <mxGeometry width="120" height="50" as="geometry">
            <mxRectangle width="120" height="50" as="alternateBounds" />
          </mxGeometry>
        </mxCell>
        <mxCell id="gUa_1OAK8cR2R-v4tpQf-265" value="2" style="shape=partialRectangle;html=1;whiteSpace=wrap;connectable=0;strokeColor=inherit;overflow=hidden;fillColor=none;top=0;left=0;bottom=0;right=0;pointerEvents=1;fontSize=16;" vertex="1" parent="gUa_1OAK8cR2R-v4tpQf-263">
          <mxGeometry x="120" width="120" height="50" as="geometry">
            <mxRectangle width="120" height="50" as="alternateBounds" />
          </mxGeometry>
        </mxCell>
        <mxCell id="gUa_1OAK8cR2R-v4tpQf-266" value="Y1-1" style="shape=partialRectangle;html=1;whiteSpace=wrap;connectable=0;strokeColor=inherit;overflow=hidden;fillColor=none;top=0;left=0;bottom=0;right=0;pointerEvents=1;fontSize=16;" vertex="1" parent="gUa_1OAK8cR2R-v4tpQf-263">
          <mxGeometry x="240" width="120" height="50" as="geometry">
            <mxRectangle width="120" height="50" as="alternateBounds" />
          </mxGeometry>
        </mxCell>
        <mxCell id="gUa_1OAK8cR2R-v4tpQf-267" value="Y1-1" style="shape=partialRectangle;html=1;whiteSpace=wrap;connectable=0;strokeColor=inherit;overflow=hidden;fillColor=none;top=0;left=0;bottom=0;right=0;pointerEvents=1;fontSize=16;" vertex="1" parent="gUa_1OAK8cR2R-v4tpQf-263">
          <mxGeometry x="360" width="119" height="50" as="geometry">
            <mxRectangle width="119" height="50" as="alternateBounds" />
          </mxGeometry>
        </mxCell>
        <mxCell id="gUa_1OAK8cR2R-v4tpQf-268" value="Y1-2" style="shape=partialRectangle;html=1;whiteSpace=wrap;connectable=0;strokeColor=inherit;overflow=hidden;fillColor=none;top=0;left=0;bottom=0;right=0;pointerEvents=1;fontSize=16;" vertex="1" parent="gUa_1OAK8cR2R-v4tpQf-263">
          <mxGeometry x="479" width="121" height="50" as="geometry">
            <mxRectangle width="121" height="50" as="alternateBounds" />
          </mxGeometry>
        </mxCell>
        <mxCell id="gUa_1OAK8cR2R-v4tpQf-269" value="Y1-A" style="shape=partialRectangle;html=1;whiteSpace=wrap;connectable=0;strokeColor=inherit;overflow=hidden;fillColor=none;top=0;left=0;bottom=0;right=0;pointerEvents=1;fontSize=16;" vertex="1" parent="gUa_1OAK8cR2R-v4tpQf-263">
          <mxGeometry x="600" width="121" height="50" as="geometry">
            <mxRectangle width="121" height="50" as="alternateBounds" />
          </mxGeometry>
        </mxCell>
        <mxCell id="gUa_1OAK8cR2R-v4tpQf-270" value="Y2-1" style="shape=partialRectangle;html=1;whiteSpace=wrap;connectable=0;strokeColor=inherit;overflow=hidden;fillColor=none;top=0;left=0;bottom=0;right=0;pointerEvents=1;fontSize=16;" vertex="1" parent="gUa_1OAK8cR2R-v4tpQf-263">
          <mxGeometry x="721" width="119" height="50" as="geometry">
            <mxRectangle width="119" height="50" as="alternateBounds" />
          </mxGeometry>
        </mxCell>
        <mxCell id="gUa_1OAK8cR2R-v4tpQf-271" value="Y2-2" style="shape=partialRectangle;html=1;whiteSpace=wrap;connectable=0;strokeColor=inherit;overflow=hidden;fillColor=none;top=0;left=0;bottom=0;right=0;pointerEvents=1;fontSize=16;" vertex="1" parent="gUa_1OAK8cR2R-v4tpQf-263">
          <mxGeometry x="840" width="120" height="50" as="geometry">
            <mxRectangle width="120" height="50" as="alternateBounds" />
          </mxGeometry>
        </mxCell>
        <mxCell id="gUa_1OAK8cR2R-v4tpQf-272" value="Y2-2" style="shape=partialRectangle;html=1;whiteSpace=wrap;connectable=0;strokeColor=inherit;overflow=hidden;fillColor=none;top=0;left=0;bottom=0;right=0;pointerEvents=1;fontSize=16;" vertex="1" parent="gUa_1OAK8cR2R-v4tpQf-263">
          <mxGeometry x="960" width="120" height="50" as="geometry">
            <mxRectangle width="120" height="50" as="alternateBounds" />
          </mxGeometry>
        </mxCell>
        <mxCell id="gUa_1OAK8cR2R-v4tpQf-273" value="-" style="shape=partialRectangle;html=1;whiteSpace=wrap;connectable=0;strokeColor=#6c8ebf;overflow=hidden;fillColor=#dae8fc;top=0;left=0;bottom=0;right=0;pointerEvents=1;fontSize=16;" vertex="1" parent="gUa_1OAK8cR2R-v4tpQf-263">
          <mxGeometry x="1080" width="120" height="50" as="geometry">
            <mxRectangle width="120" height="50" as="alternateBounds" />
          </mxGeometry>
        </mxCell>
        <mxCell id="gUa_1OAK8cR2R-v4tpQf-274" value="-" style="shape=partialRectangle;html=1;whiteSpace=wrap;connectable=0;strokeColor=#6c8ebf;overflow=hidden;fillColor=#dae8fc;top=0;left=0;bottom=0;right=0;pointerEvents=1;fontSize=16;" vertex="1" parent="gUa_1OAK8cR2R-v4tpQf-263">
          <mxGeometry x="1200" width="119" height="50" as="geometry">
            <mxRectangle width="119" height="50" as="alternateBounds" />
          </mxGeometry>
        </mxCell>
        <mxCell id="gUa_1OAK8cR2R-v4tpQf-275" value="-" style="shape=partialRectangle;html=1;whiteSpace=wrap;connectable=0;strokeColor=#6c8ebf;overflow=hidden;fillColor=#dae8fc;top=0;left=0;bottom=0;right=0;pointerEvents=1;fontSize=16;" vertex="1" parent="gUa_1OAK8cR2R-v4tpQf-263">
          <mxGeometry x="1319" width="121" height="50" as="geometry">
            <mxRectangle width="121" height="50" as="alternateBounds" />
          </mxGeometry>
        </mxCell>
        <mxCell id="gUa_1OAK8cR2R-v4tpQf-276" value="" style="shape=partialRectangle;html=1;whiteSpace=wrap;connectable=0;strokeColor=inherit;overflow=hidden;fillColor=none;top=0;left=0;bottom=0;right=0;pointerEvents=1;fontSize=16;" vertex="1" parent="gUa_1OAK8cR2R-v4tpQf-263">
          <mxGeometry x="1440" width="121" height="50" as="geometry">
            <mxRectangle width="121" height="50" as="alternateBounds" />
          </mxGeometry>
        </mxCell>
        <mxCell id="gUa_1OAK8cR2R-v4tpQf-278" value="" style="shape=table;startSize=0;container=1;collapsible=0;childLayout=tableLayout;fontSize=16;fillColor=#b1ddf0;strokeColor=#10739e;" vertex="1" parent="1">
          <mxGeometry x="379" y="470" width="1561" height="50" as="geometry" />
        </mxCell>
        <mxCell id="gUa_1OAK8cR2R-v4tpQf-279" value="" style="shape=tableRow;horizontal=0;startSize=0;swimlaneHead=0;swimlaneBody=0;strokeColor=inherit;top=0;left=0;bottom=0;right=0;collapsible=0;dropTarget=0;fillColor=none;points=[[0,0.5],[1,0.5]];portConstraint=eastwest;fontSize=16;" vertex="1" parent="gUa_1OAK8cR2R-v4tpQf-278">
          <mxGeometry width="1561" height="50" as="geometry" />
        </mxCell>
        <mxCell id="gUa_1OAK8cR2R-v4tpQf-280" value="name2" style="shape=partialRectangle;html=1;whiteSpace=wrap;connectable=0;strokeColor=inherit;overflow=hidden;fillColor=none;top=0;left=0;bottom=0;right=0;pointerEvents=1;fontSize=16;" vertex="1" parent="gUa_1OAK8cR2R-v4tpQf-279">
          <mxGeometry width="120" height="50" as="geometry">
            <mxRectangle width="120" height="50" as="alternateBounds" />
          </mxGeometry>
        </mxCell>
        <mxCell id="gUa_1OAK8cR2R-v4tpQf-281" value="3" style="shape=partialRectangle;html=1;whiteSpace=wrap;connectable=0;strokeColor=inherit;overflow=hidden;fillColor=none;top=0;left=0;bottom=0;right=0;pointerEvents=1;fontSize=16;" vertex="1" parent="gUa_1OAK8cR2R-v4tpQf-279">
          <mxGeometry x="120" width="120" height="50" as="geometry">
            <mxRectangle width="120" height="50" as="alternateBounds" />
          </mxGeometry>
        </mxCell>
        <mxCell id="gUa_1OAK8cR2R-v4tpQf-282" value="Y1-1" style="shape=partialRectangle;html=1;whiteSpace=wrap;connectable=0;strokeColor=inherit;overflow=hidden;fillColor=none;top=0;left=0;bottom=0;right=0;pointerEvents=1;fontSize=16;" vertex="1" parent="gUa_1OAK8cR2R-v4tpQf-279">
          <mxGeometry x="240" width="120" height="50" as="geometry">
            <mxRectangle width="120" height="50" as="alternateBounds" />
          </mxGeometry>
        </mxCell>
        <mxCell id="gUa_1OAK8cR2R-v4tpQf-283" value="Y1-2" style="shape=partialRectangle;html=1;whiteSpace=wrap;connectable=0;strokeColor=inherit;overflow=hidden;fillColor=none;top=0;left=0;bottom=0;right=0;pointerEvents=1;fontSize=16;" vertex="1" parent="gUa_1OAK8cR2R-v4tpQf-279">
          <mxGeometry x="360" width="119" height="50" as="geometry">
            <mxRectangle width="119" height="50" as="alternateBounds" />
          </mxGeometry>
        </mxCell>
        <mxCell id="gUa_1OAK8cR2R-v4tpQf-284" value="Y1-Q" style="shape=partialRectangle;html=1;whiteSpace=wrap;connectable=0;strokeColor=inherit;overflow=hidden;fillColor=none;top=0;left=0;bottom=0;right=0;pointerEvents=1;fontSize=16;" vertex="1" parent="gUa_1OAK8cR2R-v4tpQf-279">
          <mxGeometry x="479" width="121" height="50" as="geometry">
            <mxRectangle width="121" height="50" as="alternateBounds" />
          </mxGeometry>
        </mxCell>
        <mxCell id="gUa_1OAK8cR2R-v4tpQf-285" value="Y1-A" style="shape=partialRectangle;html=1;whiteSpace=wrap;connectable=0;strokeColor=inherit;overflow=hidden;fillColor=none;top=0;left=0;bottom=0;right=0;pointerEvents=1;fontSize=16;" vertex="1" parent="gUa_1OAK8cR2R-v4tpQf-279">
          <mxGeometry x="600" width="121" height="50" as="geometry">
            <mxRectangle width="121" height="50" as="alternateBounds" />
          </mxGeometry>
        </mxCell>
        <mxCell id="gUa_1OAK8cR2R-v4tpQf-286" value="Y2-2" style="shape=partialRectangle;html=1;whiteSpace=wrap;connectable=0;strokeColor=inherit;overflow=hidden;fillColor=none;top=0;left=0;bottom=0;right=0;pointerEvents=1;fontSize=16;" vertex="1" parent="gUa_1OAK8cR2R-v4tpQf-279">
          <mxGeometry x="721" width="119" height="50" as="geometry">
            <mxRectangle width="119" height="50" as="alternateBounds" />
          </mxGeometry>
        </mxCell>
        <mxCell id="gUa_1OAK8cR2R-v4tpQf-287" value="Y2-Q" style="shape=partialRectangle;html=1;whiteSpace=wrap;connectable=0;strokeColor=inherit;overflow=hidden;fillColor=none;top=0;left=0;bottom=0;right=0;pointerEvents=1;fontSize=16;" vertex="1" parent="gUa_1OAK8cR2R-v4tpQf-279">
          <mxGeometry x="840" width="120" height="50" as="geometry">
            <mxRectangle width="120" height="50" as="alternateBounds" />
          </mxGeometry>
        </mxCell>
        <mxCell id="gUa_1OAK8cR2R-v4tpQf-288" value="Y2-A" style="shape=partialRectangle;html=1;whiteSpace=wrap;connectable=0;strokeColor=inherit;overflow=hidden;fillColor=none;top=0;left=0;bottom=0;right=0;pointerEvents=1;fontSize=16;" vertex="1" parent="gUa_1OAK8cR2R-v4tpQf-279">
          <mxGeometry x="960" width="120" height="50" as="geometry">
            <mxRectangle width="120" height="50" as="alternateBounds" />
          </mxGeometry>
        </mxCell>
        <mxCell id="gUa_1OAK8cR2R-v4tpQf-289" value="Y3-1" style="shape=partialRectangle;html=1;whiteSpace=wrap;connectable=0;strokeColor=inherit;overflow=hidden;fillColor=none;top=0;left=0;bottom=0;right=0;pointerEvents=1;fontSize=16;" vertex="1" parent="gUa_1OAK8cR2R-v4tpQf-279">
          <mxGeometry x="1080" width="120" height="50" as="geometry">
            <mxRectangle width="120" height="50" as="alternateBounds" />
          </mxGeometry>
        </mxCell>
        <mxCell id="gUa_1OAK8cR2R-v4tpQf-290" value="Y3-2" style="shape=partialRectangle;html=1;whiteSpace=wrap;connectable=0;strokeColor=inherit;overflow=hidden;fillColor=none;top=0;left=0;bottom=0;right=0;pointerEvents=1;fontSize=16;" vertex="1" parent="gUa_1OAK8cR2R-v4tpQf-279">
          <mxGeometry x="1200" width="119" height="50" as="geometry">
            <mxRectangle width="119" height="50" as="alternateBounds" />
          </mxGeometry>
        </mxCell>
        <mxCell id="gUa_1OAK8cR2R-v4tpQf-291" value="Y3-Q" style="shape=partialRectangle;html=1;whiteSpace=wrap;connectable=0;strokeColor=inherit;overflow=hidden;fillColor=none;top=0;left=0;bottom=0;right=0;pointerEvents=1;fontSize=16;" vertex="1" parent="gUa_1OAK8cR2R-v4tpQf-279">
          <mxGeometry x="1319" width="121" height="50" as="geometry">
            <mxRectangle width="121" height="50" as="alternateBounds" />
          </mxGeometry>
        </mxCell>
        <mxCell id="gUa_1OAK8cR2R-v4tpQf-292" value="" style="shape=partialRectangle;html=1;whiteSpace=wrap;connectable=0;strokeColor=inherit;overflow=hidden;fillColor=none;top=0;left=0;bottom=0;right=0;pointerEvents=1;fontSize=16;" vertex="1" parent="gUa_1OAK8cR2R-v4tpQf-279">
          <mxGeometry x="1440" width="121" height="50" as="geometry">
            <mxRectangle width="121" height="50" as="alternateBounds" />
          </mxGeometry>
        </mxCell>
        <mxCell id="gUa_1OAK8cR2R-v4tpQf-293" value="" style="shape=table;startSize=0;container=1;collapsible=0;childLayout=tableLayout;fontSize=16;fillColor=#b1ddf0;strokeColor=#10739e;" vertex="1" parent="1">
          <mxGeometry x="379.5" y="540" width="1561" height="50" as="geometry" />
        </mxCell>
        <mxCell id="gUa_1OAK8cR2R-v4tpQf-294" value="" style="shape=tableRow;horizontal=0;startSize=0;swimlaneHead=0;swimlaneBody=0;strokeColor=inherit;top=0;left=0;bottom=0;right=0;collapsible=0;dropTarget=0;fillColor=none;points=[[0,0.5],[1,0.5]];portConstraint=eastwest;fontSize=16;" vertex="1" parent="gUa_1OAK8cR2R-v4tpQf-293">
          <mxGeometry width="1561" height="50" as="geometry" />
        </mxCell>
        <mxCell id="gUa_1OAK8cR2R-v4tpQf-295" value="name3" style="shape=partialRectangle;html=1;whiteSpace=wrap;connectable=0;strokeColor=inherit;overflow=hidden;fillColor=none;top=0;left=0;bottom=0;right=0;pointerEvents=1;fontSize=16;" vertex="1" parent="gUa_1OAK8cR2R-v4tpQf-294">
          <mxGeometry width="120" height="50" as="geometry">
            <mxRectangle width="120" height="50" as="alternateBounds" />
          </mxGeometry>
        </mxCell>
        <mxCell id="gUa_1OAK8cR2R-v4tpQf-296" value="1" style="shape=partialRectangle;html=1;whiteSpace=wrap;connectable=0;strokeColor=inherit;overflow=hidden;fillColor=none;top=0;left=0;bottom=0;right=0;pointerEvents=1;fontSize=16;" vertex="1" parent="gUa_1OAK8cR2R-v4tpQf-294">
          <mxGeometry x="120" width="120" height="50" as="geometry">
            <mxRectangle width="120" height="50" as="alternateBounds" />
          </mxGeometry>
        </mxCell>
        <mxCell id="gUa_1OAK8cR2R-v4tpQf-297" value="Y1-1" style="shape=partialRectangle;html=1;whiteSpace=wrap;connectable=0;strokeColor=inherit;overflow=hidden;fillColor=none;top=0;left=0;bottom=0;right=0;pointerEvents=1;fontSize=16;" vertex="1" parent="gUa_1OAK8cR2R-v4tpQf-294">
          <mxGeometry x="240" width="120" height="50" as="geometry">
            <mxRectangle width="120" height="50" as="alternateBounds" />
          </mxGeometry>
        </mxCell>
        <mxCell id="gUa_1OAK8cR2R-v4tpQf-298" value="Y1-1" style="shape=partialRectangle;html=1;whiteSpace=wrap;connectable=0;strokeColor=inherit;overflow=hidden;fillColor=none;top=0;left=0;bottom=0;right=0;pointerEvents=1;fontSize=16;" vertex="1" parent="gUa_1OAK8cR2R-v4tpQf-294">
          <mxGeometry x="360" width="119" height="50" as="geometry">
            <mxRectangle width="119" height="50" as="alternateBounds" />
          </mxGeometry>
        </mxCell>
        <mxCell id="gUa_1OAK8cR2R-v4tpQf-299" value="Y1-1" style="shape=partialRectangle;html=1;whiteSpace=wrap;connectable=0;strokeColor=inherit;overflow=hidden;fillColor=none;top=0;left=0;bottom=0;right=0;pointerEvents=1;fontSize=16;" vertex="1" parent="gUa_1OAK8cR2R-v4tpQf-294">
          <mxGeometry x="479" width="121" height="50" as="geometry">
            <mxRectangle width="121" height="50" as="alternateBounds" />
          </mxGeometry>
        </mxCell>
        <mxCell id="gUa_1OAK8cR2R-v4tpQf-300" value="-" style="shape=partialRectangle;html=1;whiteSpace=wrap;connectable=0;strokeColor=inherit;overflow=hidden;fillColor=none;top=0;left=0;bottom=0;right=0;pointerEvents=1;fontSize=16;" vertex="1" parent="gUa_1OAK8cR2R-v4tpQf-294">
          <mxGeometry x="600" width="121" height="50" as="geometry">
            <mxRectangle width="121" height="50" as="alternateBounds" />
          </mxGeometry>
        </mxCell>
        <mxCell id="gUa_1OAK8cR2R-v4tpQf-301" value="-" style="shape=partialRectangle;html=1;whiteSpace=wrap;connectable=0;strokeColor=#6c8ebf;overflow=hidden;fillColor=#dae8fc;top=0;left=0;bottom=0;right=0;pointerEvents=1;fontSize=16;" vertex="1" parent="gUa_1OAK8cR2R-v4tpQf-294">
          <mxGeometry x="721" width="119" height="50" as="geometry">
            <mxRectangle width="119" height="50" as="alternateBounds" />
          </mxGeometry>
        </mxCell>
        <mxCell id="gUa_1OAK8cR2R-v4tpQf-302" value="-" style="shape=partialRectangle;html=1;whiteSpace=wrap;connectable=0;strokeColor=#6c8ebf;overflow=hidden;fillColor=#dae8fc;top=0;left=0;bottom=0;right=0;pointerEvents=1;fontSize=16;" vertex="1" parent="gUa_1OAK8cR2R-v4tpQf-294">
          <mxGeometry x="840" width="120" height="50" as="geometry">
            <mxRectangle width="120" height="50" as="alternateBounds" />
          </mxGeometry>
        </mxCell>
        <mxCell id="gUa_1OAK8cR2R-v4tpQf-303" value="-" style="shape=partialRectangle;html=1;whiteSpace=wrap;connectable=0;strokeColor=#6c8ebf;overflow=hidden;fillColor=#dae8fc;top=0;left=0;bottom=0;right=0;pointerEvents=1;fontSize=16;" vertex="1" parent="gUa_1OAK8cR2R-v4tpQf-294">
          <mxGeometry x="960" width="120" height="50" as="geometry">
            <mxRectangle width="120" height="50" as="alternateBounds" />
          </mxGeometry>
        </mxCell>
        <mxCell id="gUa_1OAK8cR2R-v4tpQf-304" value="-" style="shape=partialRectangle;html=1;whiteSpace=wrap;connectable=0;strokeColor=#6c8ebf;overflow=hidden;fillColor=#dae8fc;top=0;left=0;bottom=0;right=0;pointerEvents=1;fontSize=16;" vertex="1" parent="gUa_1OAK8cR2R-v4tpQf-294">
          <mxGeometry x="1080" width="120" height="50" as="geometry">
            <mxRectangle width="120" height="50" as="alternateBounds" />
          </mxGeometry>
        </mxCell>
        <mxCell id="gUa_1OAK8cR2R-v4tpQf-305" value="-" style="shape=partialRectangle;html=1;whiteSpace=wrap;connectable=0;strokeColor=#6c8ebf;overflow=hidden;fillColor=#dae8fc;top=0;left=0;bottom=0;right=0;pointerEvents=1;fontSize=16;" vertex="1" parent="gUa_1OAK8cR2R-v4tpQf-294">
          <mxGeometry x="1200" width="119" height="50" as="geometry">
            <mxRectangle width="119" height="50" as="alternateBounds" />
          </mxGeometry>
        </mxCell>
        <mxCell id="gUa_1OAK8cR2R-v4tpQf-306" value="-" style="shape=partialRectangle;html=1;whiteSpace=wrap;connectable=0;strokeColor=#6c8ebf;overflow=hidden;fillColor=#dae8fc;top=0;left=0;bottom=0;right=0;pointerEvents=1;fontSize=16;" vertex="1" parent="gUa_1OAK8cR2R-v4tpQf-294">
          <mxGeometry x="1319" width="121" height="50" as="geometry">
            <mxRectangle width="121" height="50" as="alternateBounds" />
          </mxGeometry>
        </mxCell>
        <mxCell id="gUa_1OAK8cR2R-v4tpQf-307" value="" style="shape=partialRectangle;html=1;whiteSpace=wrap;connectable=0;strokeColor=inherit;overflow=hidden;fillColor=none;top=0;left=0;bottom=0;right=0;pointerEvents=1;fontSize=16;" vertex="1" parent="gUa_1OAK8cR2R-v4tpQf-294">
          <mxGeometry x="1440" width="121" height="50" as="geometry">
            <mxRectangle width="121" height="50" as="alternateBounds" />
          </mxGeometry>
        </mxCell>
        <mxCell id="gUa_1OAK8cR2R-v4tpQf-308" value="" style="sketch=0;html=1;aspect=fixed;strokeColor=none;shadow=0;align=center;fillColor=#2D9C5E;verticalAlign=top;labelPosition=center;verticalLabelPosition=bottom;shape=mxgraph.gcp2.check" vertex="1" parent="1">
          <mxGeometry x="1870" y="342.5" width="31.25" height="25" as="geometry" />
        </mxCell>
        <mxCell id="gUa_1OAK8cR2R-v4tpQf-309" value="" style="sketch=0;html=1;aspect=fixed;strokeColor=none;shadow=0;align=center;fillColor=#2D9C5E;verticalAlign=top;labelPosition=center;verticalLabelPosition=bottom;shape=mxgraph.gcp2.check" vertex="1" parent="1">
          <mxGeometry x="1870" y="412.5" width="31.25" height="25" as="geometry" />
        </mxCell>
        <mxCell id="gUa_1OAK8cR2R-v4tpQf-310" value="" style="sketch=0;html=1;aspect=fixed;strokeColor=none;shadow=0;align=center;fillColor=#2D9C5E;verticalAlign=top;labelPosition=center;verticalLabelPosition=bottom;shape=mxgraph.gcp2.check" vertex="1" parent="1">
          <mxGeometry x="1870" y="482.5" width="31.25" height="25" as="geometry" />
        </mxCell>
      </root>
    </mxGraphModel>
  </diagram>
</mxfile>
